    <svg width="144" height="40" viewBox="0 0 144 40" fill="none" xmlns="http://www.w3.org/2000/svg">
<path d="M7.83512 28.4336C6.67401 27.7916 5.73328 26.0625 5.73328 24.5779V6.71291L3.77619 5.54773C1.6908 4.3044 0.00012207 5.62247 0.00012207 8.49296V26.3241C0.00012207 27.5674 0.733626 29.0145 1.63488 29.5512L12.1868 35.8256C14.2721 37.0689 15.9629 35.7509 15.9629 32.8804C15.9629 32.8939 15.9629 32.9075 15.9629 32.9212L7.83841 28.4302L7.83512 28.4336Z" fill="#6FCFEB"/>
<path d="M14.3257 11.8221C15.2304 12.3589 15.9736 13.806 15.9736 15.0493V4.40978C15.9736 4.38601 15.9736 4.36562 15.9736 4.34184L10.5859 1.36603C7.90516 -0.118479 5.73425 1.45775 5.73425 4.88536V6.71298L14.3257 11.8221Z" fill="#D2DCE5"/>
<path d="M30.2984 7.73812L19.7464 1.46378C17.6808 0.230655 16 1.51814 15.9737 4.34108L24.1475 8.85916C25.3086 9.5046 26.2494 11.2303 26.2494 12.7148V30.6104L28.1571 31.7451C30.2424 32.9884 31.9299 31.6703 31.9299 28.7964V11.0061V10.9687C31.9299 9.7254 31.1963 8.27825 30.2951 7.74153L30.2984 7.73812Z" fill="#FF595A"/>
<path d="M26.2523 12.7636V12.7194C26.2523 11.2349 25.3115 9.50583 24.1505 8.86378L15.9767 4.34571C15.9767 4.36949 15.9767 4.38988 15.9767 4.41366V15.0533C15.9767 13.8099 15.2333 12.3627 14.3288 11.826L5.73721 6.71686V24.5819C5.73721 26.0665 6.67792 27.7956 7.83903 28.4376L15.9635 32.9285C15.9635 32.9285 15.9635 32.9013 15.9635 32.8877L15.9733 22.2481C15.9733 23.4915 16.7069 24.9387 17.608 25.4753L26.2523 30.6184V12.767V12.7636Z" fill="#2B5597"/>
<path d="M17.6081 25.4701C16.7036 24.9301 15.9733 23.4863 15.9733 22.243L15.9634 32.8825C15.9634 32.8825 15.9634 32.9097 15.9634 32.9232L21.4039 35.9296C24.0846 37.4142 26.2556 35.838 26.2556 32.4103V30.6132L17.6113 25.4701H17.6081Z" fill="#D2DCE5"/>
<path fill-rule="evenodd" clip-rule="evenodd" d="M137.789 33.7523C138.274 34.2342 138.877 34.4751 139.591 34.4751C140.304 34.4751 140.908 34.2342 141.393 33.7523C141.878 33.2704 142.128 32.6571 142.128 31.927C142.128 31.1969 141.878 30.5909 141.393 30.1017C140.908 29.6199 140.297 29.3789 139.591 29.3789C138.885 29.3789 138.274 29.6199 137.789 30.1017C137.303 30.5836 137.053 31.1969 137.053 31.927C137.053 32.6571 137.296 33.2631 137.789 33.7523ZM139.591 36.169C138.399 36.169 137.384 35.7601 136.553 34.9424C135.715 34.1247 135.303 33.1171 135.303 31.9343C135.303 30.7515 135.722 29.7367 136.553 28.9263C137.392 28.1085 138.407 27.6997 139.591 27.6997C140.775 27.6997 141.812 28.1085 142.643 28.9263C143.475 29.744 143.894 30.7515 143.894 31.9343C143.894 33.1171 143.475 34.132 142.643 34.9424C141.812 35.7601 140.797 36.169 139.591 36.169Z" fill="white"/>
<path d="M130.742 27.6924C131.669 27.6924 132.427 27.9917 133.008 28.5758C133.582 29.1672 133.868 29.9776 133.868 31.0071V35.9499H132.111V31.1823C132.111 30.5763 131.949 30.1163 131.625 29.8024C131.301 29.4811 130.853 29.3205 130.294 29.3205C129.676 29.3205 129.176 29.5104 128.793 29.89C128.418 30.2697 128.227 30.8538 128.227 31.6423V35.9645H126.469V27.9041H128.227V28.9409C128.757 28.1158 129.595 27.6997 130.75 27.6997L130.742 27.6924Z" fill="white"/>
<path d="M122.652 29.2475C123.093 28.2546 123.931 27.7508 125.16 27.7508V29.6345C124.483 29.5907 123.902 29.7513 123.402 30.109C122.902 30.4668 122.652 31.0655 122.652 31.8905V35.9499H120.894V27.9041H122.652V29.2548V29.2475Z" fill="white"/>
<path d="M112.795 31.248H117.584C117.466 30.5909 117.194 30.0944 116.76 29.7659C116.333 29.43 115.833 29.2694 115.259 29.2694C114.605 29.2694 114.068 29.4446 113.634 29.8024C113.2 30.1602 112.92 30.642 112.803 31.2553L112.795 31.248ZM112.81 32.6717C112.935 33.285 113.237 33.7523 113.7 34.0809C114.164 34.4094 114.737 34.5773 115.407 34.5773C116.341 34.5773 117.039 34.2415 117.503 33.5844L118.952 34.424C118.15 35.5922 116.959 36.1763 115.392 36.1763C114.068 36.1763 113.001 35.782 112.185 34.9789C111.368 34.1758 110.964 33.1682 110.964 31.9416C110.964 30.715 111.369 29.7294 112.17 28.919C112.972 28.1085 114.009 27.6997 115.267 27.6997C116.525 27.6997 117.437 28.1158 118.202 28.9409C118.967 29.7659 119.349 30.7734 119.349 31.9489C119.349 32.1315 119.327 32.3724 119.283 32.6717H112.803H112.81Z" fill="white"/>
<path d="M108.728 27.9041H110.648L107.47 35.9645H105.433L102.255 27.9041H104.175L106.455 34.0516L108.721 27.9041H108.728Z" fill="white"/>
<path d="M100.233 27.9041H102.108L98.9821 36.2201C98.2025 38.3009 96.8785 39.2939 95.0102 39.1843V37.5562C95.5619 37.5854 96.0032 37.4686 96.3416 37.213C96.6799 36.9502 96.9594 36.5413 97.1727 35.9791L97.2536 35.8185L93.804 27.9041H95.7237L98.151 33.7596L100.233 27.9041Z" fill="white"/>
<path d="M94.4586 35.9645H92.2299L87.7358 30.5909V35.9645H85.8602V24.6843H87.7358V29.744L92.0681 24.6843H94.2968L89.6923 30.1821L94.4586 35.9645Z" fill="white"/>
<path d="M49.6248 21.1691V13.2503C49.6248 10.9627 48.5946 9.8314 46.5593 9.8314C45.8055 9.8314 45.2276 9.90682 44.8256 10.0325C44.4235 10.1582 44.122 10.2588 43.9461 10.3593V21.1943H40.2023V7.94598C40.2023 7.94598 40.4787 7.82028 40.8556 7.66945C41.2073 7.51862 41.6596 7.36778 42.2375 7.21695C42.7903 7.06611 43.4687 6.91528 44.2225 6.81472C44.9763 6.68903 45.8055 6.63875 46.6849 6.63875C47.69 6.63875 48.5946 6.76444 49.4237 7.01583C50.2529 7.26722 50.9565 7.64431 51.5595 8.14709C52.1374 8.64987 52.5897 9.25321 52.9163 9.98224C53.243 10.7113 53.3938 11.5409 53.3938 12.471V21.1691H49.6499H49.6248Z" fill="white"/>
<path d="M57.3893 8.72616C57.3893 8.09768 57.5652 7.67031 57.917 7.41892C58.2687 7.19267 58.7461 7.06698 59.324 7.06698C59.7261 7.06698 60.103 7.11725 60.4547 7.21781C60.8065 7.31837 61.0075 7.36865 61.108 7.41892V21.17H57.3642V8.72616H57.3893ZM61.3342 2.94417C61.3342 4.12571 60.4045 5.08099 59.2487 5.08099C58.0928 5.08099 57.1632 4.12571 57.1632 2.94417C57.1632 1.76263 58.0928 0.807349 59.2487 0.807349C60.4045 0.807349 61.3342 1.76263 61.3342 2.94417Z" fill="white"/>
<path d="M71.636 9.80707C70.8822 9.80707 70.3043 9.88248 69.9023 10.0333C69.5002 10.1842 69.1987 10.3099 69.0479 10.4104V21.1699H65.3041V8.29873C65.3041 8.29873 65.5805 8.12275 65.882 7.94678C66.2086 7.7708 66.6358 7.56969 67.1634 7.36858C67.6911 7.16747 68.2941 6.9915 68.9977 6.84066C69.7012 6.68983 70.455 6.61441 71.2842 6.61441C71.7867 6.61441 72.2642 6.63955 72.6913 6.71497C73.1436 6.79038 73.5205 6.89094 73.8723 7.04178C74.1989 7.19261 74.4753 7.39372 74.6763 7.61997C74.8773 7.87136 74.9778 8.14789 74.9778 8.49984C74.9778 9.02776 74.8773 9.42998 74.6763 9.70651C74.4753 10.0082 74.2994 10.2344 74.1738 10.3601C74.1235 10.3099 73.9979 10.2344 73.822 10.1842C73.6461 10.1087 73.4451 10.0585 73.219 9.98304C72.9928 9.90763 72.7416 9.85735 72.4652 9.83221C72.1888 9.80707 71.9124 9.78193 71.6862 9.78193L71.636 9.80707Z" fill="white"/>
<path d="M83.6207 6.59007C84.7011 6.59007 85.7062 6.76604 86.6359 7.11799C87.5656 7.46994 88.3194 8.023 88.8721 8.77717C89.3244 8.19897 89.9275 7.67105 90.7064 7.24369C91.4853 6.81633 92.4653 6.59007 93.6211 6.59007C94.4 6.59007 95.1538 6.71577 95.8322 6.94202C96.5358 7.16827 97.1388 7.52022 97.6414 7.97272C98.169 8.42522 98.571 8.97828 98.8474 9.65704C99.149 10.3107 99.2997 11.09 99.2997 11.9447V21.1707H95.5558V13.0257C95.5558 11.9447 95.3297 11.1402 94.8774 10.6123C94.4252 10.0844 93.7718 9.83301 92.9175 9.83301C92.0632 9.83301 91.3597 10.1347 90.8572 10.738C90.3546 11.3414 90.1034 12.2464 90.1034 13.453V21.1959H86.3595V13.2771C86.3595 12.1207 86.1333 11.2659 85.6559 10.6877C85.2037 10.1347 84.4499 9.85815 83.4448 9.85815C82.691 9.85815 82.1382 9.93357 81.7864 10.0593C81.4347 10.185 81.1583 10.2855 80.9824 10.3861V21.221H77.2385V7.97272C77.2385 7.97272 77.5149 7.84703 77.8416 7.69619C78.1682 7.54536 78.6205 7.39452 79.1733 7.24369C79.7261 7.09286 80.3542 6.94202 81.108 6.84147C81.8367 6.71577 82.6659 6.66549 83.5453 6.66549L83.6207 6.59007Z" fill="white"/>
<path d="M115.558 21.0446C115.558 21.0446 115.307 21.0949 114.98 21.1452C114.628 21.1955 114.201 21.2457 113.623 21.3212C113.07 21.3714 112.392 21.4217 111.638 21.472C110.859 21.5223 110.03 21.5474 109.125 21.5474C107.794 21.5474 106.713 21.4217 105.884 21.1955C105.03 20.9692 104.376 20.6424 103.874 20.2402C103.371 19.838 103.02 19.3603 102.844 18.8073C102.668 18.2542 102.567 17.676 102.567 17.0224C102.567 16.2431 102.693 15.5392 102.919 14.961C103.145 14.3828 103.522 13.88 104.05 13.5029C104.577 13.1258 105.231 12.8493 106.035 12.6733C106.839 12.4973 107.844 12.3968 109 12.3968C109.804 12.3968 110.482 12.3968 111.01 12.4722C111.538 12.5225 111.864 12.5476 111.94 12.5728V12.1203C111.94 11.2655 111.663 10.5868 111.085 10.1343C110.507 9.68177 109.628 9.43038 108.447 9.43038C107.919 9.43038 107.442 9.48066 107.04 9.58122C106.638 9.68177 106.286 9.80747 105.985 9.93316C105.683 10.084 105.432 10.2097 105.231 10.3354C105.03 10.4862 104.854 10.5868 104.728 10.6622C104.477 10.5114 104.251 10.2851 104.05 9.9583C103.849 9.63149 103.748 9.27955 103.748 8.87732C103.748 8.4751 103.874 8.12315 104.125 7.84662C104.376 7.57009 104.703 7.3187 105.13 7.14273C105.557 6.96675 106.035 6.84106 106.588 6.76564C107.14 6.69022 107.693 6.66509 108.246 6.66509C109.326 6.66509 110.331 6.76564 111.236 6.96675C112.141 7.16787 112.92 7.49467 113.573 7.97231C114.226 8.44996 114.729 9.07843 115.08 9.85774C115.432 10.6371 115.608 11.6175 115.608 12.799V21.0698L115.558 21.0446ZM111.864 14.961C111.864 14.961 111.713 14.9358 111.538 14.9107C111.387 14.9107 111.186 14.8856 110.96 14.8604C110.734 14.8604 110.482 14.8353 110.206 14.8101C109.929 14.8101 109.653 14.8101 109.352 14.8101C108.698 14.8101 108.145 14.8604 107.743 14.9861C107.341 15.0867 107.015 15.2375 106.789 15.4386C106.563 15.6397 106.412 15.866 106.336 16.1425C106.261 16.419 106.211 16.6956 106.211 16.9721C106.211 17.2235 106.236 17.4749 106.311 17.7263C106.387 17.9525 106.537 18.1788 106.764 18.3799C106.99 18.581 107.291 18.7318 107.693 18.8575C108.095 18.9832 108.623 19.0335 109.251 19.0335C109.929 19.0335 110.482 19.0084 110.935 18.9329C111.387 18.8575 111.688 18.8073 111.839 18.7821V14.9861L111.864 14.961Z" fill="white"/>
<path d="M123.923 10.2096V16.3184C123.923 17.1228 124.099 17.6759 124.475 17.9524C124.852 18.229 125.33 18.3798 125.908 18.3798C126.159 18.3798 126.41 18.3546 126.636 18.2792C126.888 18.2038 127.089 18.1284 127.29 18.053C127.491 17.9776 127.641 17.877 127.767 17.8016C127.893 17.7262 127.968 17.6759 127.993 17.6508L129.375 19.9635C129.375 19.9635 129.224 20.1144 129.023 20.2652C128.822 20.4412 128.546 20.6172 128.194 20.7931C127.817 20.9691 127.39 21.1451 126.863 21.2959C126.335 21.4468 125.732 21.5222 125.079 21.5222C123.37 21.5222 122.139 21.0697 121.36 20.1647C120.581 19.2597 120.204 18.1033 120.204 16.6452V10.1845H119.325C118.721 10.1845 118.294 10.0336 118.043 9.78223C117.792 9.5057 117.691 9.12861 117.691 8.62583C117.691 8.24875 117.742 7.8968 117.842 7.62027C117.943 7.34374 118.018 7.14263 118.068 7.04207H120.204V4.60358C120.204 3.97511 120.38 3.54775 120.732 3.29636C121.083 3.07011 121.561 2.94441 122.139 2.94441C122.541 2.94441 122.918 2.99469 123.269 3.09524C123.621 3.1958 123.847 3.24608 123.923 3.29636V7.06721H126.787C127.39 7.06721 127.817 7.21805 128.069 7.46944C128.32 7.74597 128.42 8.12305 128.42 8.62583C128.42 9.00292 128.37 9.35486 128.27 9.63139C128.169 9.90792 128.094 10.109 128.043 10.2096H123.923Z" fill="white"/>
<path d="M143.95 21.0446C143.95 21.0446 143.698 21.0949 143.372 21.1452C143.045 21.1955 142.593 21.2457 142.015 21.3212C141.462 21.3714 140.784 21.4217 140.03 21.472C139.276 21.5223 138.422 21.5474 137.517 21.5474C136.21 21.5474 135.105 21.4217 134.276 21.1955C133.421 20.9692 132.768 20.6424 132.266 20.2402C131.763 19.838 131.411 19.3603 131.235 18.8073C131.06 18.2542 130.959 17.676 130.959 17.0224C130.959 16.2431 131.085 15.5392 131.311 14.961C131.537 14.3828 131.914 13.88 132.441 13.5029C132.969 13.1258 133.622 12.8493 134.427 12.6733C135.231 12.4973 136.236 12.3968 137.391 12.3968C138.196 12.3968 138.874 12.3968 139.402 12.4722C139.929 12.5225 140.256 12.5476 140.331 12.5728V12.1203C140.331 11.2655 140.055 10.5868 139.477 10.1343C138.899 9.68177 138.02 9.43038 136.839 9.43038C136.311 9.43038 135.834 9.48066 135.432 9.58122C135.03 9.68177 134.678 9.80747 134.376 9.93316C134.075 10.084 133.823 10.2097 133.622 10.3354C133.421 10.4862 133.246 10.5868 133.12 10.6622C132.869 10.5114 132.643 10.2851 132.441 9.9583C132.24 9.63149 132.14 9.27955 132.14 8.87732C132.14 8.4751 132.266 8.12315 132.517 7.84662C132.768 7.57009 133.095 7.3187 133.522 7.14273C133.949 6.96675 134.427 6.84106 134.979 6.76564C135.532 6.69022 136.085 6.66509 136.638 6.66509C137.718 6.66509 138.723 6.76564 139.628 6.96675C140.532 7.16787 141.311 7.49467 141.964 7.97231C142.618 8.44996 143.12 9.07843 143.472 9.85774C143.824 10.6371 144 11.6175 144 12.799V21.0698L143.95 21.0446ZM140.256 14.961C140.256 14.961 140.105 14.9358 139.929 14.9107C139.778 14.9107 139.577 14.8856 139.351 14.8604C139.125 14.8604 138.874 14.8353 138.598 14.8101C138.321 14.8101 138.045 14.8101 137.768 14.8101C137.115 14.8101 136.562 14.8604 136.16 14.9861C135.758 15.0867 135.432 15.2375 135.205 15.4386C134.979 15.6397 134.829 15.866 134.753 16.1425C134.678 16.419 134.628 16.6956 134.628 16.9721C134.628 17.2235 134.653 17.4749 134.728 17.7263C134.803 17.9525 134.954 18.1788 135.18 18.3799C135.406 18.581 135.708 18.7318 136.11 18.8575C136.512 18.9832 137.04 19.0335 137.668 19.0335C138.346 19.0335 138.899 19.0084 139.351 18.9329C139.804 18.8575 140.105 18.8073 140.256 18.7821V14.9861V14.961Z" fill="white"/>
    </svg>
